<?xml version="1.0" encoding="utf-8" ?>
<svg xmlns="http://www.w3.org/2000/svg" xmlns:xlink="http://www.w3.org/1999/xlink" width="64" height="64">
	<defs>
		<linearGradient id="gradient_0" gradientUnits="userSpaceOnUse" x1="261.46231" y1="211.88989" x2="165.90303" y2="118.02213">
			<stop offset="0" stop-color="#7DB2FF"/>
			<stop offset="1" stop-color="#9ADEFE"/>
		</linearGradient>
	</defs>
	<path fill="url(#gradient_0)" transform="scale(0.128 0.128)" d="M101.859 226.7C99.5191 217.857 99.7849 196.581 100.85 187.141C105.345 147.289 125.606 113.485 156.837 88.7303C162.834 83.9766 169.345 80.1665 176.093 76.6C202.436 62.5176 232.502 56.9636 262.138 60.7052C299.741 65.3391 333.948 84.7674 357.189 114.691C365.95 114.045 374.717 112.689 383.445 111.663C386.773 111.272 390.216 110.659 393.562 110.58C394.462 110.559 395.703 110.488 396.433 111.061C396.957 114.083 393.983 117.222 393.451 120.135C394.99 119.744 397.485 119.071 398.964 119.789C399.314 119.959 399.353 120.188 399.528 120.513C399.587 123.629 396.723 128.752 395.437 131.734L386.675 152.14C385.282 155.382 383.498 158.727 382.478 162.093C382.268 162.784 382.183 163.418 382.291 164.139C384.649 170.202 385.748 177.341 386.593 183.775C390.292 210.494 386.422 237.715 375.421 262.343C359.938 296.668 331.693 323.611 296.676 337.459C260.717 351.448 220.67 350.565 185.363 335.003C150.442 319.328 123.142 290.473 109.424 254.738C106.043 245.946 102.859 236.1 101.859 226.7Z"/>
	<defs>
		<linearGradient id="gradient_1" gradientUnits="userSpaceOnUse" x1="320.1506" y1="290.15842" x2="214.9416" y2="186.0472">
			<stop offset="0" stop-color="#6790FF"/>
			<stop offset="1" stop-color="#88C3FF"/>
		</linearGradient>
	</defs>
	<path fill="url(#gradient_1)" transform="scale(0.128 0.128)" d="M382.291 164.139C384.649 170.202 385.748 177.341 386.593 183.775C390.292 210.494 386.422 237.715 375.421 262.343C359.938 296.668 331.693 323.611 296.676 337.459C260.717 351.448 220.67 350.565 185.363 335.003C150.442 319.328 123.142 290.473 109.424 254.738C106.043 245.946 102.859 236.1 101.859 226.7C102.064 226.691 102.294 226.572 102.473 226.672C103.701 227.358 105.284 234.305 107.115 235.137C108.097 234.597 108.719 233.071 109.405 232.161C110.347 230.912 110.76 229.621 111.43 228.232C112.212 226.614 119.397 219.157 121.191 217.802C121.701 217.417 122.347 217.135 122.953 216.935C123.101 216.886 123.251 216.842 123.399 216.794C123.683 216.704 123.939 216.626 124.229 216.56L125.087 217.347C125.813 215.646 124.64 213.379 125.577 211.707C126.061 211.959 126.198 212.678 126.407 213.18L126.568 213.049C126.659 212.623 126.766 212.244 126.94 211.846L127.113 211.459L127.255 214.869L127.749 219.54C128.867 226.816 130.267 234.171 132.907 241.066L133.421 241.407C129.669 242.742 114.598 247.5 112.212 249.46C112.03 250.183 112.054 250.341 112.245 251.066C114.415 252.705 128.901 250.526 131.884 250.108C134.624 249.723 137.346 249.211 140.111 249.036C139.994 249.112 139.878 249.191 139.759 249.265C135.896 251.658 116.277 256.438 114.9 259.566C115.034 260 114.954 260.042 115.381 260.294C116.228 260.793 117.42 260.851 118.38 260.872C121.65 260.943 137.236 259.542 140.018 258.588C140.153 258.542 140.274 258.463 140.402 258.401L142.003 258.466C145.209 257.653 148.61 257.325 151.872 256.749C158.725 255.556 165.56 254.259 172.374 252.86L173.659 252.717C175.73 251.943 178.008 251.587 180.163 251.091C183.469 250.326 186.768 249.527 190.057 248.693C199.735 246.267 209.321 243.486 218.795 240.354C221.417 239.284 224.351 238.573 227.048 237.661C232.739 235.708 238.404 233.679 244.041 231.575C259.741 225.71 274.953 218.985 290.09 211.804C296.842 208.118 303.876 204.947 310.6 201.188C314.473 199.022 318.299 196.766 322.14 194.545C324.207 193.349 326.339 191.898 328.561 191.026L329.489 190.26C332.408 188.923 335.328 186.72 338.038 184.952L355.719 173.242C356.086 172.88 356.567 172.57 356.977 172.252C360.693 170.216 364.197 167.059 367.708 164.621C370.505 167.566 372.548 172.33 376.038 174.408C378.261 174.374 380.225 166.014 382.13 164.277C382.182 164.23 382.237 164.185 382.291 164.139Z"/>
	<defs>
		<linearGradient id="gradient_2" gradientUnits="userSpaceOnUse" x1="339.39911" y1="310.72342" x2="176.74268" y2="150.92502">
			<stop offset="0" stop-color="#6186FF"/>
			<stop offset="1" stop-color="#94D4FF"/>
		</linearGradient>
	</defs>
	<path fill="url(#gradient_2)" transform="scale(0.128 0.128)" d="M382.291 164.139C384.649 170.202 385.748 177.341 386.593 183.775C390.292 210.494 386.422 237.715 375.421 262.343C359.938 296.668 331.693 323.611 296.676 337.459C260.717 351.448 220.67 350.565 185.363 335.003C150.442 319.328 123.142 290.473 109.424 254.738C106.043 245.946 102.859 236.1 101.859 226.7C102.064 226.691 102.294 226.572 102.473 226.672C103.701 227.358 105.284 234.305 107.115 235.137C108.097 234.597 108.719 233.071 109.405 232.161C110.347 230.912 110.76 229.621 111.43 228.232C112.212 226.614 119.397 219.157 121.191 217.802C121.701 217.417 122.347 217.135 122.953 216.935C123.101 216.886 123.251 216.842 123.399 216.794C123.683 216.704 123.939 216.626 124.229 216.56L125.087 217.347C125.813 215.646 124.64 213.379 125.577 211.707C126.061 211.959 126.198 212.678 126.407 213.18L126.568 213.049C126.659 212.623 126.766 212.244 126.94 211.846L127.113 211.459L127.255 214.869L127.749 219.54C128.867 226.816 130.267 234.171 132.907 241.066L133.421 241.407C129.669 242.742 114.598 247.5 112.212 249.46C112.03 250.183 112.054 250.341 112.245 251.066C114.415 252.705 128.901 250.526 131.884 250.108C134.624 249.723 137.346 249.211 140.111 249.036C139.994 249.112 139.878 249.191 139.759 249.265C135.896 251.658 116.277 256.438 114.9 259.566C115.034 260 114.954 260.042 115.381 260.294C116.228 260.793 117.42 260.851 118.38 260.872C121.65 260.943 137.236 259.542 140.018 258.588C140.153 258.542 140.274 258.463 140.402 258.401L142.003 258.466C143.071 260.68 144.538 262.854 145.839 264.945C155.814 280.982 170.302 295.024 186.819 304.222C214.88 319.849 245.512 323.386 276.354 314.58C305.962 305.963 330.929 285.927 345.752 258.887C357.459 237.588 362.005 213.088 358.718 189.007C358.053 183.762 357.177 178.327 355.719 173.242C356.086 172.88 356.567 172.57 356.977 172.252C360.693 170.216 364.197 167.059 367.708 164.621C370.505 167.566 372.548 172.33 376.038 174.408C378.261 174.374 380.225 166.014 382.13 164.277C382.182 164.23 382.237 164.185 382.291 164.139Z"/>
	<path fill="#E8F0FE" transform="scale(0.128 0.128)" d="M356.977 172.252C365.237 201.697 361.631 233.207 346.931 260.024C331.513 287.753 305.659 308.174 275.113 316.75C245.132 324.96 213.121 320.977 186.066 305.669C169.488 296.179 155.431 282.847 145.079 266.793C143.498 264.329 141.201 261.187 140.402 258.401L142.003 258.466C143.071 260.68 144.538 262.854 145.839 264.945C155.814 280.982 170.302 295.024 186.819 304.222C214.88 319.849 245.512 323.386 276.354 314.58C305.962 305.963 330.929 285.927 345.752 258.887C357.459 237.588 362.005 213.088 358.718 189.007C358.053 183.762 357.177 178.327 355.719 173.242C356.086 172.88 356.567 172.57 356.977 172.252Z"/>
	<path fill="#3DB6FE" transform="scale(0.128 0.128)" d="M127.749 219.54L127.307 219.371C127.21 218.961 127.098 218.623 126.947 218.233L126.953 218.407C126.796 218.191 126.754 218.151 126.627 217.872C126.268 217.076 125.823 215.587 126.144 214.743L126.528 214.815L126.855 215.409C126.912 215.34 126.973 215.275 127.026 215.203C127.106 215.095 127.179 214.98 127.255 214.869L127.749 219.54Z"/>
	<defs>
		<linearGradient id="gradient_3" gradientUnits="userSpaceOnUse" x1="297.15536" y1="270.25507" x2="228.62834" y2="199.97675">
			<stop offset="0" stop-color="#6E9AFF"/>
			<stop offset="1" stop-color="#84BDFF"/>
		</linearGradient>
	</defs>
	<path fill="url(#gradient_3)" transform="scale(0.128 0.128)" d="M290.09 211.804C296.842 208.118 303.876 204.947 310.6 201.188C314.473 199.022 318.299 196.766 322.14 194.545C324.207 193.349 326.339 191.898 328.561 191.026C332.276 211.796 326.626 234.679 314.631 251.9C301.417 271.028 281.093 284.066 258.198 288.103C235.565 291.951 212.333 286.575 193.692 273.175C188.774 269.68 175.801 257.915 173.659 252.717C175.73 251.943 178.008 251.587 180.163 251.091C183.469 250.326 186.768 249.527 190.057 248.693C199.735 246.267 209.321 243.486 218.795 240.354C221.417 239.284 224.351 238.573 227.048 237.661C232.739 235.708 238.404 233.679 244.041 231.575C259.741 225.71 274.953 218.985 290.09 211.804Z"/>
	<path fill="#79ACFE" transform="scale(0.128 0.128)" d="M290.09 211.804L290.447 212.12C290.37 212.224 290.291 212.327 290.214 212.432C290.162 212.504 290.113 212.578 290.062 212.651C289.952 212.806 289.829 212.951 289.709 213.098C288.353 214.752 289.274 217.455 287.851 219.25L287.583 218.924L287.326 219.054C287.145 220.022 287.169 221.644 286.6 222.377L286.366 221.805L286.23 222.2C283.442 230.163 273.725 240.533 266.148 244.077C265.616 244.326 265.051 244.519 264.495 244.709L264.252 245.085C264.283 245.11 264.323 245.127 264.345 245.16C264.41 245.261 264.453 245.375 264.507 245.482C263.459 246.026 262.939 245.747 261.878 245.966C261.351 246.075 260.641 246.538 260.129 246.751C260.052 246.783 259.976 246.816 259.9 246.849L260.634 247.08C256.31 249.629 244.342 250.979 239.521 249.777C236.826 249.105 233.945 249.163 231.305 248.407C227.977 247.454 224.99 245.628 221.791 244.38C220.35 243.817 218.849 242.748 218.064 241.395C218.239 240.891 218.43 240.729 218.795 240.354C221.417 239.284 224.351 238.573 227.048 237.661C232.739 235.708 238.404 233.679 244.041 231.575C259.741 225.71 274.953 218.985 290.09 211.804Z"/>
	<path fill="#CAE1FE" transform="scale(0.128 0.128)" d="M329.489 190.26C330.278 192.781 330.233 196.26 330.367 198.919C331.281 214.357 327.988 229.754 320.837 243.467C310.4 263.472 291.597 279.483 270.05 286.223C248.662 292.914 223.922 291.207 203.993 280.756C193.211 275.093 183.701 267.284 176.047 257.811C174.789 256.235 173.386 254.599 172.374 252.86L173.659 252.717C175.801 257.915 188.774 269.68 193.692 273.175C212.333 286.575 235.565 291.951 258.198 288.103C281.093 284.066 301.417 271.028 314.631 251.9C326.626 234.679 332.276 211.796 328.561 191.026L329.489 190.26Z"/>
	<path fill="#5170FE" transform="scale(0.128 0.128)" d="M357.189 114.691C365.95 114.045 374.717 112.689 383.445 111.663C386.773 111.272 390.216 110.659 393.562 110.58C394.462 110.559 395.703 110.488 396.433 111.061C396.957 114.083 393.983 117.222 393.451 120.135C394.99 119.744 397.485 119.071 398.964 119.789C399.314 119.959 399.353 120.188 399.528 120.513C399.587 123.629 396.723 128.752 395.437 131.734L386.675 152.14C385.282 155.382 383.498 158.727 382.478 162.093C382.268 162.784 382.183 163.418 382.291 164.139C382.237 164.185 382.182 164.23 382.13 164.277C380.225 166.014 378.261 174.374 376.038 174.408C372.548 172.33 370.505 167.566 367.708 164.621C364.197 167.059 360.693 170.216 356.977 172.252C356.567 172.57 356.086 172.88 355.719 173.242L338.038 184.952C335.328 186.72 332.408 188.923 329.489 190.26L328.561 191.026C326.339 191.898 324.207 193.349 322.14 194.545C318.299 196.766 314.473 199.022 310.6 201.188C303.876 204.947 296.842 208.118 290.09 211.804C274.953 218.985 259.741 225.71 244.041 231.575C238.404 233.679 232.739 235.708 227.048 237.661C224.351 238.573 221.417 239.284 218.795 240.354C209.321 243.486 199.735 246.267 190.057 248.693C186.768 249.527 183.469 250.326 180.163 251.091C178.008 251.587 175.73 251.943 173.659 252.717L172.374 252.86C165.56 254.259 158.725 255.556 151.872 256.749C148.61 257.325 145.209 257.653 142.003 258.466L140.402 258.401C140.274 258.463 140.153 258.542 140.018 258.588C137.236 259.542 121.65 260.943 118.38 260.872C117.42 260.851 116.228 260.793 115.381 260.294C114.954 260.042 115.034 260 114.9 259.566C116.277 256.438 135.896 251.658 139.759 249.265C139.878 249.191 139.994 249.112 140.111 249.036C137.346 249.211 134.624 249.723 131.884 250.108C128.901 250.526 114.415 252.705 112.245 251.066C112.054 250.341 112.03 250.183 112.212 249.46C114.598 247.5 129.669 242.742 133.421 241.407L134.464 241.017C138.986 239.557 159.459 231.428 161.746 231.346L162.496 230.878C174.74 226.694 186.762 222.105 198.8 217.375C210.67 212.711 222.697 207.861 234.169 202.283C254.42 192.435 273.482 181.03 292.083 168.375C299.2 163.532 306.946 158.938 313.492 153.364L314.23 152.964C315.713 151.358 318.309 149.9 320.093 148.572C325.924 144.229 332.009 139.982 337.636 135.397C338.093 135.119 338.523 134.769 338.957 134.456C340.289 133.569 341.539 132.446 342.793 131.447C341.895 130.226 340.708 129.068 340.939 127.455C341.313 126.653 341.904 126.399 342.638 125.985C341.356 123.965 339.531 122.285 338.293 120.221C337.828 119.446 337.684 119.043 337.92 118.168C340.304 115.59 352.557 115.915 356.745 114.813C356.893 114.774 357.041 114.731 357.189 114.691Z"/>
	<path fill="#3DB6FE" transform="scale(0.128 0.128)" d="M393.451 120.135C394.99 119.744 397.485 119.071 398.964 119.789C399.314 119.959 399.353 120.188 399.528 120.513C399.587 123.629 396.723 128.752 395.437 131.734L386.675 152.14C385.282 155.382 383.498 158.727 382.478 162.093C382.268 162.784 382.183 163.418 382.291 164.139C382.237 164.185 382.182 164.23 382.13 164.277C380.225 166.014 378.261 174.374 376.038 174.408C372.548 172.33 370.505 167.566 367.708 164.621C364.197 167.059 360.693 170.216 356.977 172.252C356.567 172.57 356.086 172.88 355.719 173.242L338.038 184.952C335.328 186.72 332.408 188.923 329.489 190.26L328.561 191.026C326.339 191.898 324.207 193.349 322.14 194.545C318.299 196.766 314.473 199.022 310.6 201.188C303.876 204.947 296.842 208.118 290.09 211.804C274.953 218.985 259.741 225.71 244.041 231.575C238.404 233.679 232.739 235.708 227.048 237.661C224.351 238.573 221.417 239.284 218.795 240.354C209.321 243.486 199.735 246.267 190.057 248.693C186.768 249.527 183.469 250.326 180.163 251.091C178.008 251.587 175.73 251.943 173.659 252.717L172.374 252.86C165.56 254.259 158.725 255.556 151.872 256.749C148.61 257.325 145.209 257.653 142.003 258.466L140.402 258.401C140.274 258.463 140.153 258.542 140.018 258.588C137.236 259.542 121.65 260.943 118.38 260.872C117.42 260.851 116.228 260.793 115.381 260.294C114.954 260.042 115.034 260 114.9 259.566C116.277 256.438 135.896 251.658 139.759 249.265C139.878 249.191 139.994 249.112 140.111 249.036C155.439 246.384 170.7 243.561 185.792 239.764C250.347 223.431 311.112 194.708 364.709 155.193C366.823 157.991 369.281 162.447 372.005 164.583C372.549 165.01 372.817 165.162 373.498 165.061C374.172 164.427 374.651 163.693 375.064 162.868C376.935 159.128 378.42 155.058 380.066 151.206L389.63 128.769C390.687 126.254 391.693 122.696 393.206 120.481C393.286 120.364 393.37 120.25 393.451 120.135Z"/>
	<path fill="#3DB6FE" transform="scale(0.128 0.128)" d="M342.638 125.985L345.4 129.489C344.533 130.143 343.673 130.811 342.793 131.447C341.895 130.226 340.708 129.068 340.939 127.455C341.313 126.653 341.904 126.399 342.638 125.985Z"/>
	<defs>
		<linearGradient id="gradient_4" gradientUnits="userSpaceOnUse" x1="257.49744" y1="209.95546" x2="185.74129" y2="140.35417">
			<stop offset="0" stop-color="#7EB3FF"/>
			<stop offset="1" stop-color="#93D4FE"/>
		</linearGradient>
	</defs>
	<path fill="url(#gradient_4)" transform="scale(0.128 0.128)" d="M162.496 230.878C158.308 221.425 157.223 203.607 158.315 193.516C160.714 171.349 172.729 150.338 190.072 136.442C207.981 122.257 230.754 115.69 253.466 118.162C269.759 119.959 286.366 126.855 298.825 137.588C304.369 142.365 308.928 147.679 313.492 153.364C306.946 158.938 299.2 163.532 292.083 168.375C273.482 181.03 254.42 192.435 234.169 202.283C222.697 207.861 210.67 212.711 198.8 217.375C186.762 222.105 174.74 226.694 162.496 230.878Z"/>
	<path fill="#3DB6FE" transform="scale(0.128 0.128)" d="M236.286 156.34C243.521 155.666 251.197 155.971 258.18 158.023C265.224 160.092 271.411 164.229 276.709 169.228C278.238 170.67 279.756 172.023 280.778 173.891L280.641 174.042C279.459 173.226 278.514 172.129 277.514 171.107C268.556 161.956 257.294 156.879 244.469 156.781C231.412 156.682 220.201 161.268 210.917 170.43C201.725 179.72 196.22 192.265 197.199 205.51C197.391 208.109 198.694 213.048 198.112 215.385L197.821 215.083L198.085 215.383L198.209 214.603L197.788 215.023C197.671 214.649 197.561 214.285 197.486 213.9C194.96 200.915 196.67 188.169 204.132 176.99C209.743 168.584 218.742 161.531 228.317 158.249C230.915 157.359 233.598 156.864 236.286 156.34Z"/>
	<defs>
		<linearGradient id="gradient_5" gradientUnits="userSpaceOnUse" x1="266.47308" y1="208.2588" x2="150.11716" y2="94.149223">
			<stop offset="0" stop-color="#7CB1FF"/>
			<stop offset="1" stop-color="#A1E7FE"/>
		</linearGradient>
	</defs>
	<path fill="url(#gradient_5)" transform="scale(0.128 0.128)" d="M101.859 226.7C99.5191 217.857 99.7849 196.581 100.85 187.141C105.345 147.289 125.606 113.485 156.837 88.7303C162.834 83.9766 169.345 80.1665 176.093 76.6C202.436 62.5176 232.502 56.9636 262.138 60.7052C299.741 65.3391 333.948 84.7674 357.189 114.691C357.041 114.731 356.893 114.774 356.745 114.813C352.557 115.915 340.304 115.59 337.92 118.168C337.684 119.043 337.828 119.446 338.293 120.221C339.531 122.285 341.356 123.965 342.638 125.985C341.904 126.399 341.313 126.653 340.939 127.455C340.708 129.068 341.895 130.226 342.793 131.447C341.539 132.446 340.289 133.569 338.957 134.456C336.922 132.013 335.087 129.41 333.033 126.982C329.674 123.011 325.822 119.203 321.972 115.716C306.821 102.251 288.431 92.9543 268.605 88.7372C264.765 87.8867 260.922 87.0738 256.999 86.7135C224.414 83.7204 193.128 92.7361 168.024 113.944C145.381 133.074 129.563 161.949 127.185 191.642C126.666 198.129 126.783 204.958 127.113 211.459L126.94 211.846C126.766 212.244 126.659 212.623 126.568 213.049L126.407 213.18C126.198 212.678 126.061 211.959 125.577 211.707C124.64 213.379 125.813 215.646 125.087 217.347L124.229 216.56C123.939 216.626 123.683 216.704 123.399 216.794C123.251 216.842 123.101 216.886 122.953 216.935C122.347 217.135 121.701 217.417 121.191 217.802C119.397 219.157 112.212 226.614 111.43 228.232C110.76 229.621 110.347 230.912 109.405 232.161C108.719 233.071 108.097 234.597 107.115 235.137C105.284 234.305 103.701 227.358 102.473 226.672C102.294 226.572 102.064 226.691 101.859 226.7Z"/>
	<path fill="#E8F0FE" transform="scale(0.128 0.128)" d="M127.113 211.459C126.783 204.958 126.666 198.129 127.185 191.642C129.563 161.949 145.381 133.074 168.024 113.944C193.128 92.7361 224.414 83.7204 256.999 86.7135C260.922 87.0738 264.765 87.8867 268.605 88.7372C288.431 92.9543 306.821 102.251 321.972 115.716C325.822 119.203 329.674 123.011 333.033 126.982C335.087 129.41 336.922 132.013 338.957 134.456C338.523 134.769 338.093 135.119 337.636 135.397C332.888 129.338 327.885 123.41 322.24 118.158C305.273 102.374 282.068 91.3585 259.045 88.5394C228.35 84.6486 197.366 93.1031 172.901 112.045C148.251 131.159 132.333 159.391 128.736 190.376C126.884 206.005 128.932 226.185 134.451 240.959C134.458 240.977 134.46 240.998 134.464 241.017L133.421 241.407L132.907 241.066C130.267 234.171 128.867 226.816 127.749 219.54L127.255 214.869L127.113 211.459Z"/>
	<path fill="#CAE1FE" transform="scale(0.128 0.128)" d="M161.746 231.346C161.649 231.194 161.505 230.983 161.42 230.813C160.712 229.404 160.335 227.578 159.936 226.053C157.228 215.695 156.435 204.267 157.379 193.609C157.777 189.118 158.726 184.61 159.934 180.269C166.244 157.912 181.17 138.972 201.433 127.611C220.823 116.734 245.73 113.825 267.117 119.846C283.009 124.248 297.302 133.126 308.29 145.423C310.339 147.712 312.73 150.292 314.23 152.964L313.492 153.364C308.928 147.679 304.369 142.365 298.825 137.588C286.366 126.855 269.759 119.959 253.466 118.162C230.754 115.69 207.981 122.257 190.072 136.442C172.729 150.338 160.714 171.349 158.315 193.516C157.223 203.607 158.308 221.425 162.496 230.878L161.746 231.346Z"/>
</svg>
